PathFileType   4   (X/Y/Z)
DataRate  CameraRate  NumFrames  NumMarkers  Units  OrigDataRate  OrigDataStartFrame  OrigNumFrames  
  120.0      120.0        9         39         mm      120.0          91        240
Frame#      Time	midhip		hip_r		hip_l		knee_r		knee_l		ankle_r		ankle_l		midasis		asis_r		asis_l		psis_r		psis_l		epicondLat_r		epicondLat_l		epicondMed_r		epicondMed_l		malleolusLat_r		malleolusLat_l		malleolusMedv_r		malleolusMedv_l		heel_r		heel_l		sternalnotch		xyphoidprocess		neck		subclavicle_r		subclavicle_l		toe_r		toe_l		thighwand_r		thighwand_l		upperleg1_r		upperleg1_l		upperleg2_r		upperleg2_l		shankwand_r		shankwand_l		lowerleg1_r		lowerleg1_l		
              X1          Y1          Z1          X2          Y2          Z2          X3          Y3          Z3          X4          Y4          Z4          X5          Y5          Z5          X6          Y6          Z6          X7          Y7          Z7          X8          Y8          Z8          X9          Y9          Z9          X10          Y10          Z10          X11          Y11          Z11          X12          Y12          Z12          X13          Y13          Z13          X14          Y14          Z14          X15          Y15          Z15          X16          Y16          Z16          X17          Y17          Z17          X18          Y18          Z18          X19          Y19          Z19          X20          Y20          Z20          X21          Y21          Z21          X22          Y22          Z22          X23          Y23          Z23          X24          Y24          Z24          X25          Y25          Z25          X26          Y26          Z26          X27          Y27          Z27          X28          Y28          Z28          X29          Y29          Z29          X30          Y30          Z30          X31          Y31          Z31          X32          Y32          Z32          X33          Y33          Z33          X34          Y34          Z34          X35          Y35          Z35          X36          Y36          Z36          X37          Y37          Z37          X38          Y38          Z38          X39          Y39          Z39          

	91	0.75833	760.721	762.555	-251.411	767.788	760.908	-181.749	753.655	764.202	-321.073	758.110	424.510	-164.906	740.488	419.146	-324.508	721.815	64.337	-158.014	715.422	65.999	-329.869	831.051	845.947	-256.574	842.243	843.338	-146.240	819.858	848.556	-366.908	654.230	868.767	-204.680	648.779	867.858	-258.823	759.030	427.308	-108.483	736.127	419.868	-380.333	738.032	419.593	-220.734	752.292	423.038	-262.295	715.735	65.657	-121.033	703.324	67.380	-364.279	720.744	60.764	-191.570	716.939	65.946	-296.342	675.755	50.685	-149.051	670.005	46.961	-308.435	799.117	1195.417	-261.700	809.961	1094.075	-266.468	692.254	1262.066	-239.985	808.753	1195.331	-205.265	795.752	1196.433	-312.436	806.149	48.224	-144.760	804.056	44.802	-351.108	892.230	555.367	-153.818	860.701	572.411	-396.059	844.499	599.597	-119.034	846.621	613.710	-327.226	827.424	543.568	-117.293	834.516	556.811	-321.403	846.791	180.908	-136.170	694.710	173.965	-449.957	769.349	166.553	-150.327	707.167	162.302	-372.308
	92	0.76667	760.627	762.551	-251.371	767.699	760.914	-181.710	753.555	764.188	-321.033	758.102	424.512	-164.898	740.395	419.132	-324.472	721.759	64.369	-158.035	715.396	65.986	-329.847	830.958	845.940	-256.551	842.161	843.347	-146.202	819.756	848.534	-366.901	654.226	868.758	-204.632	648.711	867.857	-258.798	759.023	427.305	-108.475	736.043	419.855	-380.298	738.269	419.862	-221.219	751.844	423.119	-262.500	715.679	65.687	-121.054	703.303	67.366	-364.258	720.760	60.858	-191.617	717.059	65.825	-296.346	675.647	50.684	-149.060	669.983	46.874	-308.532	799.070	1195.421	-261.707	809.703	1093.972	-266.874	692.222	1262.128	-239.983	808.649	1195.118	-205.476	795.659	1196.437	-312.667	806.154	48.249	-144.793	804.086	44.787	-351.104	892.196	555.379	-153.801	860.642	572.434	-396.035	844.599	599.581	-118.963	846.719	613.675	-327.209	827.563	543.632	-117.384	834.425	556.664	-321.440	846.798	180.840	-136.228	694.651	173.959	-449.934	769.492	166.732	-150.444	707.265	162.168	-372.246
	93	0.77500	760.533	762.555	-251.343	767.614	760.922	-181.683	753.451	764.188	-321.004	758.099	424.503	-164.893	740.320	419.107	-324.445	721.720	64.390	-158.059	715.403	65.971	-329.839	830.874	845.935	-256.539	842.094	843.348	-146.170	819.654	848.523	-366.909	654.183	868.772	-204.592	648.637	867.877	-258.782	759.020	427.293	-108.470	735.974	419.829	-380.272	738.895	419.758	-221.734	752.086	422.458	-263.605	715.640	65.706	-121.078	703.314	67.350	-364.251	720.673	60.853	-191.641	717.191	65.678	-296.361	675.534	50.558	-149.066	669.959	46.908	-308.581	799.053	1195.411	-261.701	809.532	1093.866	-267.105	692.076	1262.221	-239.956	808.592	1194.911	-205.396	795.613	1196.422	-312.888	806.154	48.257	-144.815	804.127	44.756	-351.105	892.160	555.383	-153.798	860.568	572.446	-396.011	844.460	599.821	-119.009	846.549	613.694	-327.048	827.516	543.538	-117.534	834.383	556.529	-321.625	846.778	180.756	-136.302	694.620	173.953	-449.923	769.412	166.740	-150.526	707.375	162.018	-372.172
	94	0.78333	760.433	762.565	-251.320	767.530	760.929	-181.661	753.335	764.201	-320.979	758.085	424.492	-164.882	740.271	419.088	-324.436	721.715	64.395	-158.076	715.418	65.957	-329.848	830.789	845.931	-256.530	842.036	843.338	-146.140	819.542	848.524	-366.919	654.104	868.795	-204.564	648.568	867.917	-258.766	759.012	427.280	-108.459	735.922	419.811	-380.262	739.035	419.384	-221.311	752.819	421.538	-264.885	715.638	65.708	-121.094	703.327	67.335	-364.260	720.521	60.828	-191.644	717.297	65.640	-296.389	675.611	50.449	-149.048	669.980	46.933	-308.460	799.053	1195.400	-261.677	809.682	1093.820	-266.777	691.955	1262.264	-239.990	808.737	1194.976	-205.160	795.663	1196.287	-312.827	806.153	48.249	-144.821	804.168	44.724	-351.098	892.131	555.387	-153.804	860.487	572.444	-395.973	844.406	599.969	-119.097	846.261	613.741	-326.810	827.481	543.464	-117.461	834.427	556.520	-321.824	846.746	180.702	-136.360	694.597	173.961	-449.919	769.229	166.621	-150.496	707.453	161.996	-372.173
	95	0.79167	760.333	762.580	-251.299	767.445	760.933	-181.642	753.221	764.227	-320.956	758.080	424.486	-164.865	740.242	419.090	-324.428	721.743	64.394	-158.082	715.437	65.945	-329.865	830.703	845.935	-256.513	841.976	843.324	-146.104	819.430	848.546	-366.921	654.006	868.805	-204.537	648.509	867.969	-258.743	759.011	427.273	-108.441	735.871	419.816	-380.252	738.742	419.443	-221.015	752.455	421.617	-265.184	715.669	65.704	-121.100	703.332	67.325	-364.272	720.442	60.885	-191.650	717.336	65.669	-296.408	675.738	50.543	-149.039	670.048	46.919	-308.381	799.059	1195.405	-261.629	809.876	1093.822	-266.641	691.875	1262.344	-240.108	808.976	1195.031	-205.168	795.730	1196.241	-312.696	806.155	48.233	-144.816	804.197	44.709	-351.071	892.102	555.406	-153.814	860.409	572.438	-395.913	844.432	599.934	-119.047	846.156	613.812	-326.710	827.483	543.525	-117.364	834.265	556.613	-321.823	846.724	180.694	-136.382	694.570	173.988	-449.912	769.224	166.547	-150.383	707.450	162.003	-372.227
	96	0.80000	760.251	762.602	-251.281	767.376	760.936	-181.625	753.127	764.267	-320.937	758.091	424.489	-164.846	740.224	419.109	-324.423	721.772	64.398	-158.075	715.461	65.945	-329.884	830.627	845.952	-256.487	841.922	843.312	-146.068	819.333	848.591	-366.906	653.900	868.803	-204.508	648.447	868.028	-258.713	759.020	427.277	-108.423	735.824	419.838	-380.246	738.282	419.883	-221.258	751.513	422.343	-264.582	715.697	65.706	-121.093	703.338	67.327	-364.285	720.400	60.938	-191.640	717.295	65.702	-296.410	675.726	50.649	-149.005	670.042	46.934	-308.478	799.059	1195.427	-261.560	809.892	1093.898	-266.686	691.788	1262.382	-240.091	809.042	1195.026	-205.017	795.654	1196.373	-312.656	806.163	48.213	-144.802	804.216	44.716	-351.037	892.058	555.454	-153.830	860.342	572.451	-395.845	844.404	599.896	-118.916	846.112	613.847	-326.754	827.356	543.537	-117.365	833.974	556.796	-321.672	846.722	180.731	-136.367	694.548	174.022	-449.896	769.262	166.461	-150.242	707.368	161.995	-372.269
	97	0.80833	760.197	762.630	-251.257	767.338	760.949	-181.603	753.055	764.310	-320.911	758.103	424.499	-164.834	740.206	419.125	-324.440	721.776	64.406	-158.060	715.476	65.967	-329.902	830.573	845.979	-256.461	841.894	843.315	-146.047	819.253	848.644	-366.875	653.808	868.796	-204.482	648.363	868.099	-258.679	759.027	427.286	-108.410	735.804	419.859	-380.262	738.200	419.757	-221.055	751.132	422.799	-264.136	715.698	65.714	-121.079	703.352	67.348	-364.301	720.473	60.943	-191.625	717.187	65.802	-296.403	675.694	50.600	-148.920	669.945	46.933	-308.579	799.046	1195.458	-261.501	809.916	1094.035	-266.471	691.732	1262.323	-239.943	808.934	1195.216	-204.791	795.554	1196.452	-312.640	806.170	48.196	-144.778	804.227	44.733	-351.003	892.003	555.528	-153.848	860.292	572.485	-395.787	844.305	599.933	-118.937	846.163	613.889	-326.754	827.256	543.527	-117.317	833.908	556.975	-321.553	846.732	180.797	-136.318	694.528	174.046	-449.872	769.330	166.488	-150.221	707.213	162.092	-372.306
	98	0.81667	760.159	762.656	-251.229	767.318	760.965	-181.577	753.001	764.348	-320.880	758.109	424.509	-164.825	740.185	419.134	-324.472	721.775	64.406	-158.048	715.481	65.991	-329.903	830.535	846.006	-256.438	841.881	843.325	-146.039	819.189	848.687	-366.837	653.740	868.780	-204.461	648.263	868.177	-258.634	759.032	427.293	-108.401	735.817	419.876	-380.297	738.411	419.390	-220.556	750.985	422.978	-264.184	715.696	65.716	-121.067	703.377	67.367	-364.311	720.557	60.979	-191.625	717.134	65.899	-296.400	675.721	50.545	-148.873	669.912	46.926	-308.562	799.014	1195.497	-261.471	809.871	1094.094	-266.270	691.708	1262.348	-239.885	808.765	1195.364	-204.725	795.557	1196.441	-312.623	806.164	48.184	-144.760	804.225	44.737	-350.963	891.950	555.599	-153.853	860.265	572.527	-395.755	844.174	599.977	-119.016	846.309	613.956	-326.766	827.298	543.742	-117.228	833.958	557.020	-321.575	846.731	180.857	-136.251	694.506	174.060	-449.842	769.389	166.604	-150.232	707.109	162.219	-372.328
	99	0.82500	760.123	762.675	-251.202	767.293	760.976	-181.552	752.954	764.374	-320.853	758.107	424.513	-164.813	740.167	419.139	-324.494	721.767	64.413	-158.051	715.485	65.991	-329.886	830.496	846.027	-256.413	841.859	843.335	-146.024	819.134	848.720	-366.801	653.690	868.751	-204.445	648.163	868.243	-258.574	759.037	427.294	-108.389	735.845	419.888	-380.322	738.236	419.911	-220.997	751.000	422.934	-264.497	715.693	65.720	-121.069	703.409	67.361	-364.303	720.540	61.063	-191.633	717.310	65.833	-296.422	674.772	51.091	-148.733	669.916	46.952	-308.524	798.962	1195.537	-261.450	809.754	1094.009	-266.379	691.624	1262.358	-239.921	808.694	1195.221	-204.720	795.527	1196.410	-312.658	806.162	48.178	-144.749	804.214	44.728	-350.916	891.918	555.649	-153.847	860.243	572.569	-395.741	844.105	600.025	-119.066	846.316	614.023	-326.814	827.253	544.137	-117.395	833.965	557.044	-321.694	846.730	180.894	-136.192	694.489	174.068	-449.816	769.432	166.617	-150.129	707.250	162.177	-372.292
